<svg xmlns="http://www.w3.org/2000/svg" width="15.259" height="15.259" viewBox="0 0 15.259 15.259">
  <g id="Group_4146" data-name="Group 4146" transform="translate(-2.25 -2.25)">
    <path id="Path_51016" data-name="Path 51016" d="M7.889,3H4.675A1.675,1.675,0,0,0,3,4.675V7.889a1.673,1.673,0,0,0,.491,1.184l7.132,7.132a1.548,1.548,0,0,0,1.941.246,13.47,13.47,0,0,0,3.888-3.888,1.548,1.548,0,0,0-.246-1.941L9.075,3.491A1.675,1.675,0,0,0,7.889,3Z" transform="translate(0)" fill="none" stroke="#163bc3" stroke-linecap="round" stroke-linejoin="round" stroke-width="1.5"/>
    <path id="Path_51017" data-name="Path 51017" d="M6,6h.006v.006H6Z" transform="translate(-0.767 -0.767)" fill="none" stroke="#163bc3" stroke-linecap="round" stroke-linejoin="round" stroke-width="1.5"/>
  </g>
</svg>
