<svg xmlns="http://www.w3.org/2000/svg" width="14.264" height="14.264" viewBox="0 0 14.264 14.264">
  <path id="Path_51039" data-name="Path 51039" d="M6.064,3,7.77,1.292a.654.654,0,0,1,.925,0L10.4,3h2.412a.654.654,0,0,1,.654.654V6.064L15.172,7.77a.654.654,0,0,1,0,.925L13.467,10.4v2.412a.654.654,0,0,1-.654.654H10.4L8.7,15.172a.654.654,0,0,1-.925,0L6.064,13.467H3.652A.654.654,0,0,1,3,12.813V10.4L1.292,8.7a.654.654,0,0,1,0-.925L3,6.064V3.652A.654.654,0,0,1,3.652,3ZM4.306,4.306v2.3L2.68,8.232,4.306,9.859v2.3h2.3l1.626,1.626,1.626-1.626h2.3v-2.3l1.626-1.626L12.158,6.606v-2.3h-2.3L8.232,2.68,6.606,4.306ZM8.232,10.85A2.617,2.617,0,1,1,10.85,8.232,2.617,2.617,0,0,1,8.232,10.85Zm0-1.309A1.309,1.309,0,1,0,6.924,8.232,1.309,1.309,0,0,0,8.232,9.541Z" transform="translate(-1.101 -1.101)" fill="#6c8cff"/>
</svg>
