<svg xmlns="http://www.w3.org/2000/svg" width="49.681" height="49.681" viewBox="0 0 49.681 49.681">
  <g id="Group_4149" data-name="Group 4149" transform="translate(-24 -24)">
    <path id="Path_51028" data-name="Path 51028" d="M77.859,54.93A22.93,22.93,0,1,1,54.93,32,22.93,22.93,0,0,1,77.859,54.93Z" transform="translate(-6.089 -6.089)" fill="#2d8274" opacity="0.17"/>
    <path id="Path_51029" data-name="Path 51029" d="M59.746,41.756a1.911,1.911,0,0,1,0,2.7L46.371,57.835a1.911,1.911,0,0,1-2.7,0L37.934,52.1a1.912,1.912,0,1,1,2.7-2.7l4.38,4.383L57.042,41.756a1.911,1.911,0,0,1,2.7,0ZM73.681,48.84A24.84,24.84,0,1,1,48.84,24,24.84,24.84,0,0,1,73.681,48.84Zm-3.822,0A21.019,21.019,0,1,0,48.84,69.859,21.019,21.019,0,0,0,69.859,48.84Z" fill="#2d8274"/>
  </g>
</svg>
